<?xml version="1.0" encoding="iso-8859-1"?>
<!DOCTYPE svg PUBLIC "-//W3C//DTD SVG 1.1//EN" "http://www.w3.org/Graphics/SVG/1.1/DTD/svg11.dtd">
<?xml-stylesheet type="text/css" href="../css/styles.css" ?>
<!-- Generator: Adobe Illustrator 19.0.0, SVG Export Plug-In . SVG Version: 6.00 Build 0)  -->
<svg version="1.1" id="Layer_1" xmlns="http://www.w3.org/2000/svg" xmlns:xlink="http://www.w3.org/1999/xlink" x="0px" y="0px"
	 viewBox="0 0 512 512" style="enable-background:new 0 0 512 512;" xml:space="preserve">
<polyline style="fill:#C69C6D;" points="24.033,492.669 24.033,412.212 63.739,412.212 63.739,388.18 192.261,388.18
	192.261,427.886 496.327,427.886 496.327,492.669 "/>
<rect x="231.999" y="428.345" style="fill:#D1B08A;" width="263.993" height="64"/>
<rect x="287.995" y="468.344" style="fill:#FFFFFF;" width="103.999" height="24"/>
<path style="fill:#8E999F;" d="M440.013,428.314l31.969-68.557l-21.751-10.143c-13.675-6.377-27.978-9.754-42.17-10.404
	l-32.062,57.131l16,32L440.013,428.314z"/>
<polygon style="fill:#BDCCD4;" points="431.997,340.114 407.998,340.114 375.998,388.228 391.999,420.17 "/>
<path style="fill:#8E999F;" d="M375.998,404.341l47.984-100.583l-21.751-10.143c-24.115-11.245-50.189-13.165-74.153-7.239"/>
<path style="fill:#BDCCD4;" d="M55.919,412.315l-31.903-68.557L45.8,333.615c13.675-6.377,27.995-9.836,42.187-10.484l32.015,65.049
	H63.739v24.161L55.919,412.315z"/>
<polygon style="fill:#8E999F;" points="96.002,388.18 112.002,388.18 88.002,324.441 56.002,324.441 "/>
<path style="fill:#BDCCD4;" d="M120.001,388.18l-47.92-100.502l21.752-10.102c24.115-11.245,50.189-13.373,74.153-7.446
	l72.014,157.757h-47.739V388.18H120.001z"/>
<polyline style="fill:#8E999F;" points="136.002,268.116 216,427.886 240.001,427.886 167.986,270.149 144.002,268.116 "/>
<path style="fill:#BDCCD4;" d="M240.001,428.34l-75.145-160.03l-20.775-44.551l21.751-10.143
	c56.06-26.141,122.697-1.887,148.837,54.173l77.329,160.552"/>
<path style="fill:#8E999F;" d="M314.67,267.561c-23.17-49.688-78.144-74.191-129.379-60.962c31.206,8.115,58.689,29.4,73.379,60.905
	l77.329,160.381h55.999L314.67,267.561z"/>
<g>
	<rect x="87.771" y="404.898" style="fill:#FFFFFF;" width="16.718" height="15.673"/>
	<rect x="120.163" y="404.898" style="fill:#FFFFFF;" width="15.673" height="15.673"/>
	<rect x="151.51" y="404.898" style="fill:#FFFFFF;" width="16.718" height="15.673"/>
</g>
<rect x="48.065" y="436.245" width="111.804" height="15.673"/>
<path d="M400.196,484.31v-24.033H280.033v24.033H0v15.673h512V484.31H400.196z M295.706,475.951h88.816v8.359h-88.816V475.951z"/>
<path d="M15.673,404.898v71.053h15.673v-55.38h40.751v-24.033h111.804v39.706h304.065v39.706h15.673v-55.38h-51.37l30.125-64.605
	l-28.853-13.454c-11.344-5.29-23.244-8.733-35.485-10.291l16.643-32.112l-29.157-13.596c-24.041-11.211-51.335-14.096-77.128-8.242
	l-6.645-13.795c-27.925-59.887-99.368-85.885-159.252-57.963l-28.853,13.454l18.586,39.858
	c-21.034-1.938-42.432,1.686-61.732,10.687l-28.912,13.481l15.415,32.356c-11.894,1.614-23.461,5.011-34.503,10.161l-28.853,13.454
	l30.277,64.933H15.673z M446.919,356.717l14.649,6.832l-26.591,57.023h-38.023l-11.891-24.689l25.236-48.691
	C422.968,348.088,435.276,351.287,446.919,356.717z M398.919,300.717l14.345,6.689l-36.705,70.82l-41.145-85.426
	C356.967,288.648,378.811,291.341,398.919,300.717z M169.144,220.718c52.051-24.268,114.151-1.672,138.466,50.472l71.948,149.382
	H245.01l-73.052-155.574l-17.462-37.448L169.144,220.718z M97.145,284.717c19.95-9.304,41.608-12.022,62.997-8.008l67.553,143.862
	h-28.119v-39.706H125.12L82.554,291.52L97.145,284.717z M49.146,340.716c11.15-5.199,22.91-8.347,35.011-9.392l23.603,49.541H56.424
	v13.707l-21.927-47.025L49.146,340.716z"/>
<g>
	<rect x="48.065" y="460.278" style="fill:#FFFFFF;" width="15.673" height="15.673"/>
	<rect x="72.098" y="460.278" style="fill:#FFFFFF;" width="15.673" height="15.673"/>
	<rect x="96.131" y="460.278" style="fill:#FFFFFF;" width="15.673" height="15.673"/>
	<rect x="120.163" y="460.278" style="fill:#FFFFFF;" width="15.673" height="15.673"/>
	<rect x="144.196" y="460.278" style="fill:#FFFFFF;" width="15.673" height="15.673"/>
</g>


<!-- edited SVG to locate elements on fireworks. Animation order is FW1-FW5-->
<g class="fw3">
	<rect x="391.837" y="92.473" style="fill:#7AC943;" width="15.673" height="15.673"/>
</g>
<g class="fw4">
	<rect x="328.397" y="52.912" transform="matrix(-0.7071 -0.7071 0.7071 -0.7071 572.2797 358.5427)" style="fill:#FBB03B;" width="63.999" height="15.673"/>
	<rect x="352.56" y="107.945" transform="matrix(-0.7071 -0.7071 0.7071 -0.7071 516.2791 493.7388)" style="fill:#FF1D25;" width="15.673" height="63.999"/>
	<rect x="407.587" y="132.099" transform="matrix(-0.7071 -0.7071 0.7071 -0.7071 651.473 549.7194)" style="fill:#FBB03B;" width="63.999" height="15.673"/>
	<rect x="431.757" y="28.744" transform="matrix(-0.7071 -0.7071 0.7071 -0.7071 707.4808 414.5351)" style="fill:#FF7BAC;" width="15.673" height="63.999"/>
	<rect x="431.543" y="92.473" style="fill:#FF1D25;" width="16.718" height="15.673"/>
	<rect x="455.576" y="92.473" style="fill:#FBB03B;" width="32.392" height="15.673"/>
	<rect x="391.837" y="12.016" style="fill:#FF1D25;" width="15.673" height="48.065"/>
	<rect x="304.065" y="92.473" style="fill:#FF7BAC;" width="56.424" height="15.673"/>
</g>
<g class="fw2">
	<rect x="391.837" y="132.18" style="fill:#FF7BAC;" width="15.673" height="39.706"/>
</g>
<g class="fw1">
	<rect x="391.837" y="188.604" style="fill:#FBB03B;" width="15.673" height="31.347"/>
</g>
<g class="fw5">
	<rect x="280.033" y="20.376" style="fill:#7AC943;" width="15.673" height="15.673"/>
	<polygon style="fill:#FF1D25;" points="271.673,68.441 256,68.441 256,52.767 240.327,52.767 240.327,68.441 223.608,68.441
		223.608,84.114 240.327,84.114 240.327,100.833 256,100.833 256,84.114 271.673,84.114 "/>
	<rect x="207.935" y="108.147" style="fill:#FF7BAC;" width="15.673" height="15.673"/>
</g>
<!-- end of edited SVG (classes applied)-->
<g>
</g>
<g>
</g>
<g>
</g>
<g>
</g>
<g>
</g>
<g>
</g>
<g>
</g>
<g>
</g>
<g>
</g>
<g>
</g>
<g>
</g>
<g>
</g>
<g>
</g>
<g>
</g>
<g>
</g>
</svg>
